<svg xmlns="http://www.w3.org/2000/svg" viewBox="0 0 860 320" width="860" height="320" role="img">
<defs>
<linearGradient id="edge" x1="0" y1="0" x2="1" y2="1"><stop offset="0" stop-color="#3b9dff"/><stop offset="1" stop-color="#ff8a1f"/></linearGradient>
<filter id="glow" x="-50%" y="-50%" width="200%" height="200%"><feGaussianBlur stdDeviation="3" result="b"/><feMerge><feMergeNode in="b"/><feMergeNode in="SourceGraphic"/></feMerge></filter>
</defs>
<style>
text{font-family:ui-monospace,SFMono-Regular,'SF Mono',Menlo,Consolas,'Liberation Mono',monospace;}
.in{opacity:0;animation:in .45s ease-out forwards}
@keyframes in{to{opacity:1}}
@keyframes blink{50%{opacity:0}}
@keyframes pulse{0%{opacity:.9;transform:scale(.35)}100%{opacity:0;transform:scale(1)}}
@keyframes spin{to{transform:rotate(360deg)}}
@keyframes dash{to{stroke-dashoffset:-24}}
@media (prefers-reduced-motion:reduce){*{animation:none!important}.in{opacity:1}}

</style>
<rect x="1" y="1" width="858" height="318" rx="6" fill="#090c10" stroke="#25303c" stroke-width="1.5"/>
<path d="M1 22V7a6 6 0 0 1 6-6h15M837 1h15a6 6 0 0 1 6 6v15M859 297v15a6 6 0 0 1-6 6h-15M22 319H7a6 6 0 0 1-6-6v-15" fill="none" stroke="#3b9dff" stroke-width="2.5"/>
<circle cx="26" cy="24" r="5.5" fill="#ff5a36"/><circle cx="44" cy="24" r="5.5" fill="#ffc53d"/><circle cx="62" cy="24" r="5.5" fill="#39d353"/><text x="430.0" y="28" fill="#6f7d8c" font-size="12" font-weight="400" text-anchor="middle" xml:space="preserve">oscarjscom:~$ git log --oneline --graph</text><line x1="1" y1="46" x2="859" y2="46" stroke="#25303c"/>
<line x1="40" y1="76" x2="40" y2="265" stroke="#25303c" stroke-width="2"/>
<g class="in" style="animation-delay:0.20s"><circle cx="40" cy="76" r="5" fill="#090c10" stroke="#3b9dff" stroke-width="2"/>
<text x="62" y="80" font-size="12.5" fill="#dbe4ee" xml:space="preserve"><tspan fill="#3b9dff" font-weight="700">feat(pfc):</tspan> FixMyCity: plataforma de reclamos ciudadanos con IA<tspan fill="#ffc53d" font-size="11.5" font-weight="700">  (HEAD -&gt; main)</tspan></text>
</g>
<g class="in" style="animation-delay:0.35s"><circle cx="40" cy="103" r="5" fill="#090c10" stroke="#ff8a1f" stroke-width="2"/>
<text x="62" y="107" font-size="12.5" fill="#dbe4ee" xml:space="preserve"><tspan fill="#ff8a1f" font-weight="700">feat(mobile):</tspan> apps iOS con Swift y diseño de interfaces en Flutter</text>
</g>
<g class="in" style="animation-delay:0.50s"><circle cx="40" cy="130" r="5" fill="#090c10" stroke="#ffc53d" stroke-width="2"/>
<text x="62" y="134" font-size="12.5" fill="#dbe4ee" xml:space="preserve"><tspan fill="#ffc53d" font-weight="700">feat(cloud):</tspan> despliegues y servicios en la nube con AWS</text>
</g>
<g class="in" style="animation-delay:0.65s"><circle cx="40" cy="157" r="5" fill="#090c10" stroke="#39d353" stroke-width="2"/>
<text x="62" y="161" font-size="12.5" fill="#dbe4ee" xml:space="preserve"><tspan fill="#39d353" font-weight="700">feat(hackathon):</tspan> ekECO: clasificador de residuos con IA · QuipuSoft 2026</text>
</g>
<g class="in" style="animation-delay:0.80s"><circle cx="40" cy="184" r="5" fill="#090c10" stroke="#ff8a1f" stroke-width="2"/>
<text x="62" y="188" font-size="12.5" fill="#dbe4ee" xml:space="preserve"><tspan fill="#ff8a1f" font-weight="700">feat(iot):</tspan> NextCap: conteo de aforo con Arduino, ESP32-CAM y visor 3D</text>
</g>
<g class="in" style="animation-delay:0.95s"><circle cx="40" cy="211" r="5" fill="#090c10" stroke="#3b9dff" stroke-width="2"/>
<text x="62" y="215" font-size="12.5" fill="#dbe4ee" xml:space="preserve"><tspan fill="#3b9dff" font-weight="700">feat(backend):</tspan> microservicios con Spring Boot, Eureka y API Gateway</text>
</g>
<g class="in" style="animation-delay:1.10s"><circle cx="40" cy="238" r="5" fill="#090c10" stroke="#8aa4bf" stroke-width="2"/>
<text x="62" y="242" font-size="12.5" fill="#dbe4ee" xml:space="preserve"><tspan fill="#8aa4bf" font-weight="700">feat(api):</tspan> APIs REST con Django REST Framework y Node.js</text>
</g>
<g class="in" style="animation-delay:1.25s"><circle cx="40" cy="265" r="5" fill="#090c10" stroke="#ff5a36" stroke-width="2"/>
<text x="62" y="269" font-size="12.5" fill="#dbe4ee" xml:space="preserve"><tspan fill="#ff5a36" font-weight="700">init(carrera):</tspan> primer commit en Ingeniería de Software · TECSUP</text>
</g>
<text x="22" y="302" fill="#6f7d8c" font-size="11.5" font-weight="400" text-anchor="start" xml:space="preserve">-- más commits en camino --</text>
</svg>